<?xml version="1.0" encoding="UTF-8" standalone="no"?>
<svg
   xmlns:dc="http://purl.org/dc/elements/1.1/"
   xmlns:cc="http://creativecommons.org/ns#"
   xmlns:rdf="http://www.w3.org/1999/02/22-rdf-syntax-ns#"
   xmlns:svg="http://www.w3.org/2000/svg"
   xmlns="http://www.w3.org/2000/svg"
   xmlns:xlink="http://www.w3.org/1999/xlink"
   xmlns:sodipodi="http://sodipodi.sourceforge.net/DTD/sodipodi-0.dtd"
   xmlns:inkscape="http://www.inkscape.org/namespaces/inkscape"
   width="1000"
   height="1000"
   viewBox="0 0 264.58333 264.58334"
   version="1.1"
   id="svg8"
   inkscape:version="1.0.1 (3bc2e813f5, 2020-09-07, custom)"
   sodipodi:docname="favicon.svg"
   inkscape:export-filename="/archive/Programmierung, Elektrik, Elektronik/Web (CSS, HTML, Javascript)/Arbeitsversion/favicon.png"
   inkscape:export-xdpi="3.0699999"
   inkscape:export-ydpi="3.0699999">
  <defs
     id="defs2">
    <linearGradient
       inkscape:collect="always"
       id="linearGradient865">
      <stop
         style="stop-color:#ea605b;stop-opacity:1"
         offset="0"
         id="stop861" />
      <stop
         style="stop-color:#f2ae53;stop-opacity:1"
         offset="1"
         id="stop863" />
    </linearGradient>
    <linearGradient
       inkscape:collect="always"
       xlink:href="#linearGradient865"
       id="linearGradient867"
       x1="49.503372"
       y1="411.05124"
       x2="279.50339"
       y2="221.05124"
       gradientUnits="userSpaceOnUse"
       gradientTransform="matrix(0.77254948,0,0,0.77254948,-2.8190466,36.631455)" />
  </defs>
  <sodipodi:namedview
     id="base"
     pagecolor="#ffffff"
     bordercolor="#666666"
     borderopacity="1.0"
     inkscape:pageopacity="0.0"
     inkscape:pageshadow="2"
     inkscape:zoom="0.25"
     inkscape:cx="287.50535"
     inkscape:cy="388.55215"
     inkscape:document-units="px"
     inkscape:current-layer="layer1"
     showgrid="true"
     units="px"
     inkscape:window-width="1920"
     inkscape:window-height="1042"
     inkscape:window-x="0"
     inkscape:window-y="20"
     inkscape:window-maximized="1"
     inkscape:snap-bbox="true"
     inkscape:bbox-nodes="true"
     inkscape:snap-bbox-edge-midpoints="true"
     inkscape:snap-bbox-midpoints="true"
     inkscape:bbox-paths="true"
     inkscape:object-paths="true"
     inkscape:snap-intersection-paths="true"
     inkscape:snap-center="true"
     inkscape:snap-others="true"
     inkscape:snap-object-midpoints="true"
     inkscape:snap-smooth-nodes="true"
     inkscape:snap-midpoints="true"
     fit-margin-top="0"
     fit-margin-left="0"
     fit-margin-right="0"
     fit-margin-bottom="0"
     showguides="false"
     inkscape:document-rotation="0">
    <inkscape:grid
       type="xygrid"
       id="grid2079"
       originx="-18.102495"
       originy="369.99877"
       spacingx="0.5"
       spacingy="0.5"
       units="mm" />
  </sodipodi:namedview>
  <metadata
     id="metadata5">
    <rdf:RDF>
      <cc:Work
         rdf:about="">
        <dc:format>image/svg+xml</dc:format>
        <dc:type
           rdf:resource="http://purl.org/dc/dcmitype/StillImage" />
        <dc:title></dc:title>
      </cc:Work>
    </rdf:RDF>
  </metadata>
  <g
     inkscape:label="Layer 1"
     inkscape:groupmode="layer"
     id="layer1"
     transform="translate(12.394131,-161.05248)">
    <circle
       style="fill:url(#linearGradient867);fill-opacity:1;stroke:#ffffff;stroke-width:0.268974;stroke-linecap:round;stroke-linejoin:round;stroke-opacity:0;paint-order:stroke fill markers;stop-color:#000000"
       id="path859"
       cx="119.89754"
       cy="293.34415"
       r="132.15718" />
    <path
       inkscape:connector-curvature="0"
       id="path2401"
       d="m 147.21878,383.83344 c 9.95647,-5.2102 22.87382,-17.6934 28.11626,-27.1712 7.4806,-13.5241 10.60974,-30.524 8.13215,-44.1801 -2.11924,-11.6811 -6.70974,-20.5167 -15.85598,-30.5191 -6.05712,-6.6241 -6.88512,-8.1088 -4.52234,-8.1088 3.34622,0 14.73955,8.6426 21.39829,16.232 10.62875,12.1142 16.27806,27.2147 16.27806,43.5107 0,17.558 -10.06473,46.2214 -19.40823,55.273 -4.35328,4.2172 -8.29502,5.2018 -18.49081,5.2018 -10.19579,0 -31.70532,-2.2089 -15.6474,-10.2383 z m -54.020864,-3.7404 c -47.175064,-7.0142 -78.629855,-52.6044 -68.679615,-99.5434 7.094801,-33.4688 34.436297,-59.6023 69.556722,-66.4836 15.533527,-3.0436 31.372967,-2.3365 34.199207,1.5267 1.10058,1.5044 2.00105,3.2586 2.00105,3.8982 0,0.64 -4.82334,1.163 -10.71849,1.163 -21.910928,0 -36.940815,5.7477 -50.594448,19.3481 -29.06988,28.9567 -27.523294,73.2034 3.647698,104.3586 19.215852,19.2062 40.35054,26.3264 63.44795,21.3754 4.04964,-0.868 7.7197,-1.2217 8.15573,-0.786 1.75957,1.7587 -1.14727,7.7249 -4.50977,9.2562 -11.59686,5.2812 -32.65268,7.9465 -46.506034,5.8867 z m 21.976454,-28.5822 c -1.20125,-3.7829 -0.13347,-5.2491 4.65765,-6.3958 6.0609,-1.4507 18.35321,-10.3928 22.4625,-16.3405 11.6806,-16.9062 11.66912,-33.1826 -0.0344,-48.8094 -5.64942,-7.5432 -0.4878,-5.7116 8.10388,2.8757 11.18216,11.1764 13.66407,16.7169 13.68696,30.5542 0.0158,9.8042 -0.57901,12.6705 -4.03091,19.4109 -8.03943,15.6984 -17.54762,21.5677 -34.93905,21.5677 -7.7206,0 -9.12652,-0.406 -9.90658,-2.8628 z m -24.572861,-37.2478 c -15.691985,-7.1234 -18.996376,-25.598 -6.960199,-38.9139 5.541373,-6.1305 13.209452,-10.1603 29.36408,-15.4317 12.05311,-3.9331 18.27603,-7.402 26.36511,-14.6972 9.20606,-8.3026 15.30923,-23.6039 15.34339,-38.4677 0.0259,-11.2664 0.59202,-11.9798 9.50627,-11.9798 4.25853,0 10.95781,-1.221 14.88729,-2.7133 l 7.1445,-2.7133 0.969,6.4585 c 2.22712,14.844 -4.63317,38.0116 -14.5058,48.9867 -9.46714,10.5245 -17.62139,14.0649 -62.23786,27.0225 -8.86989,2.576 -13.289141,6.7135 -13.289141,12.4419 0,10.1337 12.918581,14.6342 21.438731,7.4686 5.20339,-4.3762 7.35491,-3.5762 7.27236,2.7041 -0.11855,9.0271 -7.0077,17.4653 -17.05757,20.8932 -6.78258,2.3136 -11.402288,2.0454 -18.240161,-1.0586 z"
       style="fill:#ffffff;fill-opacity:1;stroke-width:1.43821"
       sodipodi:nodetypes="cccsscsczcssscssssccssccssscsscccssscscccccscccc" />
    <text
       xml:space="preserve"
       style="font-style:normal;font-variant:normal;font-weight:bold;font-stretch:normal;font-size:3.175px;line-height:1.25;font-family:'Liberation Sans';-inkscape-font-specification:'Liberation Sans Bold';text-align:end;letter-spacing:0px;word-spacing:0px;writing-mode:lr-tb;text-anchor:end;fill:#000000;fill-opacity:1;stroke:none;stroke-width:0.264583"
       x="317.00336"
       y="276.80115"
       id="text881" />
  </g>
</svg>
