<?xml version="1.0" encoding="UTF-8" standalone="no"?>
<svg
   xmlns:dc="http://purl.org/dc/elements/1.1/"
   xmlns:cc="http://creativecommons.org/ns#"
   xmlns:rdf="http://www.w3.org/1999/02/22-rdf-syntax-ns#"
   xmlns:svg="http://www.w3.org/2000/svg"
   xmlns="http://www.w3.org/2000/svg"
   xmlns:sodipodi="http://sodipodi.sourceforge.net/DTD/sodipodi-0.dtd"
   xmlns:inkscape="http://www.inkscape.org/namespaces/inkscape"
   width="3303.3071"
   height="1001.5748"
   viewBox="0 0 873.99999 265.00001"
   version="1.1"
   id="svg8"
   inkscape:version="1.0.1 (3bc2e813f5, 2020-09-07, custom)"
   sodipodi:docname="LogoWaldorfschule.svg">
  <defs
     id="defs2" />
  <sodipodi:namedview
     id="base"
     pagecolor="#ffffff"
     bordercolor="#666666"
     borderopacity="1.0"
     inkscape:pageopacity="0.0"
     inkscape:pageshadow="2"
     inkscape:zoom="0.25"
     inkscape:cx="1139.9244"
     inkscape:cy="-69.86818"
     inkscape:document-units="px"
     inkscape:current-layer="layer1"
     showgrid="true"
     units="px"
     inkscape:window-width="1920"
     inkscape:window-height="1042"
     inkscape:window-x="0"
     inkscape:window-y="20"
     inkscape:window-maximized="1"
     inkscape:snap-bbox="true"
     inkscape:bbox-nodes="true"
     inkscape:snap-bbox-edge-midpoints="true"
     inkscape:snap-bbox-midpoints="true"
     inkscape:bbox-paths="true"
     inkscape:object-paths="true"
     inkscape:snap-intersection-paths="true"
     inkscape:snap-center="true"
     inkscape:snap-others="true"
     inkscape:snap-object-midpoints="true"
     inkscape:snap-smooth-nodes="true"
     inkscape:snap-midpoints="true"
     fit-margin-top="0"
     fit-margin-left="0"
     fit-margin-right="0"
     fit-margin-bottom="0"
     showguides="false"
     inkscape:document-rotation="0">
    <inkscape:grid
       type="xygrid"
       id="grid2079"
       originx="-63.499956"
       originy="333.37505"
       spacingx="0.5"
       spacingy="0.5"
       units="mm" />
  </sodipodi:namedview>
  <metadata
     id="metadata5">
    <rdf:RDF>
      <cc:Work
         rdf:about="">
        <dc:format>image/svg+xml</dc:format>
        <dc:type
           rdf:resource="http://purl.org/dc/dcmitype/StillImage" />
        <dc:title></dc:title>
      </cc:Work>
    </rdf:RDF>
  </metadata>
  <g
     inkscape:label="Layer 1"
     inkscape:groupmode="layer"
     id="layer1"
     transform="translate(-33.00333,-197.67619)">
    <path
       inkscape:connector-curvature="0"
       id="path2401"
       d="m 194.21129,449.42366 c 12.88782,-6.74425 29.60823,-22.90266 36.39413,-35.1709 9.683,-17.50577 13.73341,-39.51067 10.52638,-57.18733 -2.74318,-15.12025 -8.68519,-26.55721 -20.52423,-39.50449 -7.84043,-8.57435 -8.9122,-10.49606 -5.85379,-10.49606 4.33141,0 19.07911,11.18699 27.69829,21.01085 13.75801,15.68084 21.07057,35.22712 21.07057,56.321 0,22.72727 -13.02795,59.82968 -25.12231,71.54613 -5.63496,5.45885 -10.73721,6.73333 -23.9348,6.73333 -13.19759,0 -41.03986,-2.85926 -20.25424,-13.25253 z m -69.92544,-4.8417 C 63.221714,435.50269 22.506143,376.49007 35.385889,315.73146 c 9.183621,-43.32251 44.574878,-77.15014 90.035301,-86.05747 20.10684,-3.93962 40.60965,-3.02433 44.26798,1.97624 1.42461,1.94727 2.59019,4.21792 2.59019,5.04591 0,0.82798 -6.2434,1.50545 -13.87417,1.50545 -28.36185,0 -47.81677,7.43986 -65.490244,25.04448 -37.628505,37.48188 -35.62658,94.7555 4.721637,135.08333 24.873297,24.86079 52.230367,34.07727 82.128017,27.66858 5.24191,-1.12363 9.9925,-1.58138 10.5569,-1.01726 2.27761,2.27648 -1.48504,9.99931 -5.83752,11.98144 -15.01115,6.8361 -42.26614,10.28599 -60.19813,7.6198 z m 28.44666,-36.99725 c -1.55492,-4.89661 -0.17276,-6.79447 6.02894,-8.27886 7.84532,-1.87777 23.75667,-13.45256 29.0758,-21.15133 15.11955,-21.88361 15.1047,-42.95214 -0.0445,-63.17969 -7.31269,-9.76404 -0.63142,-7.39316 10.48979,3.72235 14.47437,14.46697 17.68699,21.63865 17.71661,39.54988 0.0205,12.69071 -0.74948,16.40089 -5.21766,25.12578 -10.40637,20.32016 -22.71392,27.91754 -45.22565,27.91754 -9.99367,0 -11.81351,-0.52589 -12.82324,-3.70567 z m -31.80749,-48.21413 c -20.31195,-9.22056 -24.589204,-33.13441 -9.00939,-50.37071 7.17284,-7.93548 17.09852,-13.15173 38.00932,-19.97512 15.60173,-5.091 23.65678,-9.58124 34.12741,-19.02427 11.91647,-10.74692 19.81651,-30.55325 19.86072,-49.79309 0.0335,-14.5834 0.76632,-15.50687 12.30506,-15.50687 5.51231,0 14.18396,-1.58048 19.27035,-3.51216 l 9.24794,-3.51217 1.25429,8.36003 c 2.88283,19.21429 -5.99724,49.20274 -18.77653,63.40918 -12.25441,13.62299 -22.8094,18.20574 -80.56165,34.97824 -11.48132,3.33445 -17.20167,8.6901 -17.20167,16.10498 0,13.11733 16.72201,18.94277 27.75062,9.6675 6.73536,-5.66458 9.52032,-4.62906 9.41346,3.50026 -0.15345,11.68478 -9.07087,22.60732 -22.07958,27.04453 -8.77948,2.99467 -14.7593,2.6476 -23.61035,-1.37033 z"
       style="fill:#ffffff;fill-opacity:1;stroke-width:1.86163902"
       sodipodi:nodetypes="cccsscsczcssscssssccssccssscsscccssscscccccscccc" />
    <text
       xml:space="preserve"
       style="font-style:normal;font-variant:normal;font-weight:bold;font-stretch:normal;font-size:3.175px;line-height:1.25;font-family:'Liberation Sans';-inkscape-font-specification:'Liberation Sans Bold';text-align:end;letter-spacing:0px;word-spacing:0px;writing-mode:lr-tb;text-anchor:end;fill:#000000;fill-opacity:1;stroke:none;stroke-width:0.264583"
       x="317.00336"
       y="276.80115"
       id="text881" />
    <g
       id="g882"
       transform="translate(0,0.125)"
       style="fill:#ffffff;fill-opacity:1">
      <path
         sodipodi:nodetypes="ssscczcccccccccs"
         inkscape:connector-curvature="0"
         id="path958"
         d="m 528.50337,414.30115 c 0,-11.75 2.5,-18.12497 6.25,-22.06248 3.75,-3.93751 9.25,-4.93752 16.25,-4.93752 14,0 16.5,4 16.5,4 v 5.50004 c -20.5,-4e-5 -28,-2.50004 -28,14.99996 0,17.5 6.5,16 16.99996,16.00004 v -8 h -3.99996 v -10 h 15 v 28 l -11.00004,1 4e-5,-4e-5 h -4.5 c -23.5,0 -23.5,-18.625 -23.5,-24.5 z"
         style="fill:#ffffff;fill-opacity:1;stroke-width:1.84828413" />
      <path
         sodipodi:nodetypes="ccccccc"
         inkscape:connector-curvature="0"
         id="path956"
         d="m 325.50337,387.30115 h 11 v 40.5 h 18.5 v 11 h -29.5 c 0.003,-17.16667 0,-51.5 0,-51.5 z"
         style="fill:#ffffff;fill-opacity:1;stroke-width:1.84828413" />
      <path
         sodipodi:nodetypes="ccccccccccccc"
         inkscape:connector-curvature="0"
         id="path902-7-3"
         d="m 362.00333,387.30119 h 33 v 11 h -22 v 9.5 h 18 v 11 h -18 v 9 h 22 v 11 h -33 z"
         style="fill:#ffffff;fill-opacity:1;stroke-width:1.84828413" />
      <path
         inkscape:connector-curvature="0"
         id="path900-5"
         d="m 403.00333,387.30119 h 11 v 51.5 h -11 z"
         style="fill:#ffffff;fill-opacity:1;stroke-width:1.84828413" />
      <path
         sodipodi:nodetypes="ccccccccccc"
         inkscape:connector-curvature="0"
         id="path946"
         d="m 465.50333,438.80115 v -10.99996 l 22.5,-29.50004 h -22.49996 v -11 h 35 v 11.00004 l -20.50004,29.49996 20.5,4e-5 4e-5,10.99996 z"
         style="fill:#ffffff;fill-opacity:1;stroke-width:1.84828413" />
      <path
         inkscape:connector-curvature="0"
         id="path900-5-6"
         d="m 510.00333,387.30119 h 11 v 51.5 h -11 z"
         style="fill:#ffffff;fill-opacity:1;stroke-width:1.84828413" />
      <path
         sodipodi:nodetypes="zzzzzzzzzz"
         inkscape:connector-curvature="0"
         id="path942"
         transform="matrix(0.26458333,0,0,0.26458333,33.00333,198.09286)"
         d="m 1918.1104,401.41733 c -60.4724,0 -81.26,34.01559 -81.26,98.26756 0,64.25197 20.7876,96.37796 81.26,96.37796 60.4724,0 81.2599,-35.90536 81.2599,-96.3778 0,-60.47245 -20.7874,-98.26772 -81.2599,-98.26772 z m 0.5791,41.5748 c 32.7051,1.5e-4 39.106,24.56678 39.106,56.69276 0,32.12598 -7.5591,54.80346 -39.6851,54.80331 -32.126,-1.6e-4 -39.685,-22.67732 -39.6852,-54.80331 -2e-4,-32.12599 7.5592,-56.69291 40.2643,-56.69276 z"
         style="fill:#ffffff;fill-opacity:1;stroke-width:6.985641" />
      <path
         sodipodi:nodetypes="cczzzcczzzc"
         inkscape:connector-curvature="0"
         id="path938"
         d="m 656.00333,353.3012 v -9.50001 c 18.50004,5.37496 23.5,3.00004 23.5,-4.5 0,-7.50004 -23.5,-5.12504 -23.5,-17.99999 0,-12.87495 6.00004,-17.00005 17.00004,-17.00005 11,0 17.49996,2.50005 17.49996,2.50005 v 9.5 c -10.99996,-3.625 -23.5,-4.57495 -23.5,2.9 0,7.47495 23.5,4.97495 23.5,19.2 0,14.22505 -6.49996,17.39995 -17.49996,17.39995 -11,0 -17.00004,-2.49995 -17.00004,-2.49995 z"
         style="fill:#ffffff;fill-opacity:1;stroke-width:1.84828413" />
      <path
         sodipodi:nodetypes="ccccssscccc"
         inkscape:connector-curvature="0"
         id="path934"
         d="m 807.00337,355.80119 c -7.48179,0 -21.00002,-1.5 -21.00002,-16.5 v -35 l 10.99996,-4e-5 6e-5,30 c 10e-6,7.5 2.56981,10.50004 10,10.50004 7.43107,0 10.00002,-3.00004 10,-10.50004 l -8e-5,-30 h 11.00004 l 3e-5,35.00004 c -3e-5,15 -13.58103,16.5 -20.99999,16.5 z"
         style="fill:#ffffff;fill-opacity:1;stroke-width:1.84828413" />
      <path
         sodipodi:nodetypes="cccccccccccccc"
         inkscape:connector-curvature="0"
         id="path932"
         d="m 322.00337,304.30115 h 10.99996 l 6.50004,40 9.49996,-40 h 13 l 9.5,40 6.5,-40 h 11 l -10,51.5 h -15 l -8.5,-33.49996 -8.5,33.49996 h -15 z"
         style="fill:#ffffff;fill-opacity:1;stroke-width:1.84828413" />
      <path
         sodipodi:nodetypes="ccccccccccccc"
         inkscape:connector-curvature="0"
         id="path930"
         transform="matrix(0.26458333,0,0,0.26458333,33.00333,198.09286)"
         d="m 1390.8663,401.41718 -45.3545,194.64567 h 41.575 l 7.559,-34.01575 h 64.2519 l 7.559,34.01575 h 41.5748 l -45.3544,-194.64567 z m 35.9054,34.0159 22.6771,88.81874 h -45.3541 z"
         style="fill:#ffffff;fill-opacity:1;stroke-width:6.985641" />
      <path
         sodipodi:nodetypes="ccccccc"
         inkscape:connector-curvature="0"
         id="path956-2"
         d="m 437.50333,304.3012 h 11 v 40.5 h 18.5 v 11 h -29.5 c 0.003,-17.16667 0,-51.5 0,-51.5 z"
         style="fill:#ffffff;fill-opacity:1;stroke-width:1.84828413" />
      <path
         sodipodi:nodetypes="ccczccczcc"
         inkscape:connector-curvature="0"
         id="path924"
         transform="matrix(0.26458333,0,0,0.26458333,33.00333,198.09286)"
         d="m 1670.5514,401.41718 -10e-5,194.64567 h 60.4723 c 60.4726,0 83.1498,-34.01575 83.1497,-96.3778 -2e-4,-62.36206 -22.6771,-98.26787 -83.1497,-98.26787 z m 41.5746,41.57495 c 60.4726,0 60.4726,15.11796 60.4726,56.69276 0,41.5748 0,54.80308 -60.4724,54.80331 z"
         style="fill:#ffffff;fill-opacity:1;stroke-width:6.985641" />
      <path
         inkscape:connector-curvature="0"
         id="path906-1"
         d="m 571.00333,304.3015 v 51.49969 h 10.99984 v -16.00005 c 0,0 5.03944,0 8.99997,0 0,0 4.5771,9.13882 6.49986,16.00005 h 11.00036 l -8.00002,-18.49964 c 0,0 1.07159,-0.58273 4.44262,-4.74338 2.27523,-2.80512 3.5664,-7.017 3.5574,-11.25668 -0.009,-4.23968 -1.31661,-8.5074 -3.60132,-11.32747 -3.06157,-3.77805 -4.36462,-5.08108 -17.39895,-5.67252 z m 10.99984,10.99984 h 8.00003 c 0,0 7.00008,-1.4e-4 7.00008,6.49986 0,6.5 -7.00008,7.00009 -7.00008,7.00009 h -8.00003 z"
         style="fill:#ffffff;fill-opacity:1;stroke-width:1.84828413" />
      <path
         inkscape:connector-curvature="0"
         id="path908-7"
         d="m 617.50333,304.30119 h 33.5 v 11 h -22.5 v 13.5 h 16.5 v 11 h -16.5 v 16 h -11 z"
         style="fill:#ffffff;fill-opacity:1;stroke-width:1.84828413" />
      <path
         sodipodi:nodetypes="ccccccccccccc"
         inkscape:connector-curvature="0"
         id="path914"
         d="m 739.00333,304.30119 h 11 v 20.00002 h 17.00004 l -4e-5,-20.00002 h 11 v 51.5 h -11 l 4e-5,-20.50002 h -17.00004 v 20.50002 h -11 z"
         style="fill:#ffffff;fill-opacity:1;stroke-width:1.84828413" />
      <path
         sodipodi:nodetypes="ccccccc"
         inkscape:connector-curvature="0"
         id="path956-2-9"
         d="m 837.00333,304.3012 h 11 v 40.5 h 18.5 v 11 l -29.5,-10e-6 c 0.003,-17.16667 0,-51.49999 0,-51.49999 z"
         style="fill:#ffffff;fill-opacity:1;stroke-width:1.84828413" />
      <path
         inkscape:connector-curvature="0"
         id="path908"
         d="m 325.00337,221.30119 h 33.5 v 11 h -22.5 v 13.5 h 16.5 v 11 h -16.5 v 16 h -11 z"
         style="fill:#ffffff;fill-opacity:1;stroke-width:1.84828413" />
      <path
         inkscape:connector-curvature="0"
         id="path906"
         d="m 365.50345,221.30137 v 51.49969 h 10.99984 v -16.00005 c 0,0 5.03944,0 8.99997,0 0,0 4.5771,9.13882 6.49986,16.00005 h 11.00036 l -8.00002,-18.49964 c 0,0 1.07159,-0.58273 4.44262,-4.74338 2.27523,-2.80512 3.5664,-7.017 3.5574,-11.25668 -0.009,-4.23968 -1.31661,-8.5074 -3.60132,-11.32747 -3.06157,-3.77805 -4.36462,-5.08108 -17.39895,-5.67252 z m 10.99984,10.99984 h 8.00003 c 0,0 7.00008,-1.4e-4 7.00008,6.49986 0,6.5 -7.00008,7.00009 -7.00008,7.00009 h -8.00003 z"
         style="fill:#ffffff;fill-opacity:1;stroke-width:1.84828413" />
      <path
         sodipodi:nodetypes="ccccccccccccc"
         inkscape:connector-curvature="0"
         id="path902"
         d="m 410.50337,221.30119 h 33 v 11 h -22 v 9.5 h 18 v 11 h -18 v 9 h 22 v 11 h -33 z"
         style="fill:#ffffff;fill-opacity:1;stroke-width:1.84828413" />
      <path
         inkscape:connector-curvature="0"
         id="path900"
         d="m 453.00337,221.30119 h 11 v 51.5 h -11 z"
         style="fill:#ffffff;fill-opacity:1;stroke-width:1.84828413" />
      <path
         sodipodi:nodetypes="ccccccccccccc"
         inkscape:connector-curvature="0"
         id="path902-7"
         d="m 473.00337,221.30119 h 33 v 11 h -22 v 9.5 h 18 v 11 h -18 v 9 h 22 v 11 h -33 z"
         style="fill:#ffffff;fill-opacity:1;stroke-width:1.84828413" />
      <path
         sodipodi:nodetypes="ccccccccccccc"
         inkscape:connector-curvature="0"
         id="path902-7-5"
         d="m 874.00333,304.30119 h 33 v 11 h -22 v 9.5 h 18 v 11 h -18 v 9 h 22 v 11 h -33 z"
         style="fill:#ffffff;fill-opacity:1;stroke-width:1.84828413" />
      <path
         sodipodi:nodetypes="ccccccscccccsccc"
         inkscape:connector-curvature="0"
         id="path906-2"
         d="m 426.00333,387.3015 v 51.49969 h 10.99984 v -16.00005 h 8.99997 c 7.06967,-0.85211 11.02337,-3.6631 13.94282,-7.24297 2.27523,-2.80512 3.5664,-7.017 3.5574,-11.25668 -0.009,-4.23968 -1.31661,-8.5074 -3.60132,-11.32747 -3.06157,-3.77805 -4.36462,-5.08108 -17.39895,-5.67252 z m 10.99984,10.99984 h 8.00003 c 0,0 7.00008,-1.4e-4 7.00008,6.49986 0,6.5 -7.00008,7.00009 -7.00008,7.00009 h -8.00003 z"
         style="fill:#ffffff;fill-opacity:1;stroke-width:1.84828413" />
      <path
         sodipodi:nodetypes="zccczcccz"
         inkscape:connector-curvature="0"
         id="path958-3"
         d="m 696.00337,331.30119 c 0,-11.99999 1,-27.00004 22.49996,-27.00004 8.50004,0 11.5,5.00002 11.5,5.00002 v 5.50004 c -21.99996,-3.00006 -22.99996,4.49994 -22.99996,16.49998 0,12.00004 1,17.99996 22.99996,14.00002 v 5.49996 c 0,0 -2.99996,4.99998 -11.5,4.99998 -21.49996,0 -22.49996,-12.49996 -22.49996,-24.49996 z"
         style="fill:#ffffff;fill-opacity:1;stroke-width:1.84828413" />
    </g>
  </g>
</svg>
