<?xml version="1.0" encoding="UTF-8" standalone="no"?>
<svg
   width="1000"
   height="1000"
   viewBox="0 0 264.58333 264.58334"
   version="1.1"
   id="svg8"
   inkscape:version="1.3 (0e150ed6c4, 2023-07-21)"
   sodipodi:docname="favicon.svg"
   inkscape:export-filename="favicon.png"
   inkscape:export-xdpi="3.0699999"
   inkscape:export-ydpi="3.0699999"
   xmlns:inkscape="http://www.inkscape.org/namespaces/inkscape"
   xmlns:sodipodi="http://sodipodi.sourceforge.net/DTD/sodipodi-0.dtd"
   xmlns:xlink="http://www.w3.org/1999/xlink"
   xmlns="http://www.w3.org/2000/svg"
   xmlns:svg="http://www.w3.org/2000/svg"
   xmlns:rdf="http://www.w3.org/1999/02/22-rdf-syntax-ns#"
   xmlns:cc="http://creativecommons.org/ns#"
   xmlns:dc="http://purl.org/dc/elements/1.1/">
  <defs
     id="defs2">
    <linearGradient
       inkscape:collect="always"
       id="linearGradient865">
      <stop
         style="stop-color:#ea605b;stop-opacity:1"
         offset="0"
         id="stop861" />
      <stop
         style="stop-color:#f2ae53;stop-opacity:1"
         offset="1"
         id="stop863" />
    </linearGradient>
    <linearGradient
       inkscape:collect="always"
       xlink:href="#linearGradient865"
       id="linearGradient867"
       x1="49.503372"
       y1="411.05124"
       x2="279.50339"
       y2="221.05124"
       gradientUnits="userSpaceOnUse"
       gradientTransform="matrix(0.69617064,0,0,0.69617064,9.3134617,62.011594)" />
  </defs>
  <sodipodi:namedview
     id="base"
     pagecolor="#ffffff"
     bordercolor="#666666"
     borderopacity="1.0"
     inkscape:pageopacity="0.0"
     inkscape:pageshadow="2"
     inkscape:zoom="0.5"
     inkscape:cx="388"
     inkscape:cy="591"
     inkscape:document-units="px"
     inkscape:current-layer="layer1"
     showgrid="true"
     units="px"
     inkscape:window-width="1920"
     inkscape:window-height="1042"
     inkscape:window-x="0"
     inkscape:window-y="20"
     inkscape:window-maximized="1"
     inkscape:snap-bbox="true"
     inkscape:bbox-nodes="true"
     inkscape:snap-bbox-edge-midpoints="true"
     inkscape:snap-bbox-midpoints="true"
     inkscape:bbox-paths="true"
     inkscape:object-paths="true"
     inkscape:snap-intersection-paths="true"
     inkscape:snap-center="true"
     inkscape:snap-others="true"
     inkscape:snap-object-midpoints="true"
     inkscape:snap-smooth-nodes="true"
     inkscape:snap-midpoints="true"
     fit-margin-top="0"
     fit-margin-left="0"
     fit-margin-right="0"
     fit-margin-bottom="0"
     showguides="false"
     inkscape:document-rotation="0"
     inkscape:showpageshadow="2"
     inkscape:pagecheckerboard="0"
     inkscape:deskcolor="#d1d1d1">
    <inkscape:grid
       type="xygrid"
       id="grid2079"
       originx="-18.102495"
       originy="369.99877"
       spacingx="0.5"
       spacingy="0.5"
       units="mm"
       visible="true" />
  </sodipodi:namedview>
  <metadata
     id="metadata5">
    <rdf:RDF>
      <cc:Work
         rdf:about="">
        <dc:format>image/svg+xml</dc:format>
        <dc:type
           rdf:resource="http://purl.org/dc/dcmitype/StillImage" />
        <dc:title />
      </cc:Work>
    </rdf:RDF>
  </metadata>
  <g
     inkscape:label="Layer 1"
     inkscape:groupmode="layer"
     id="layer1"
     transform="translate(12.394131,-161.05248)">
    <circle
       style="fill:url(#linearGradient867);fill-opacity:1;stroke:#8c143c;stroke-width:26.4007;stroke-linecap:round;stroke-linejoin:round;stroke-dasharray:none;stroke-opacity:1;paint-order:stroke fill markers;stop-color:#000000"
       id="path859"
       cx="119.89754"
       cy="293.34415"
       r="119.09133" />
    <path
       inkscape:connector-curvature="0"
       id="path2401"
       d="m 139.80093,385.76373 c 9.64644,-5.04796 22.16155,-17.14245 27.24076,-26.32513 7.24767,-13.10297 10.27937,-29.5735 7.87892,-42.80438 -2.05324,-11.31735 -6.50081,-19.87782 -15.36224,-29.56874 -5.8685,-6.41785 -6.67072,-7.85631 -4.38152,-7.85631 3.24202,0 14.28057,8.37347 20.73198,15.72655 10.29777,11.73697 15.77115,26.36726 15.77115,42.15582 0,17.01126 -9.7513,44.78212 -18.80386,53.55186 -4.21772,4.08587 -8.03672,5.0398 -17.91503,5.0398 -9.87831,0 -30.71806,-2.14011 -15.16016,-9.91947 z M 87.462226,382.13981 C 41.756144,375.344 11.280822,331.17345 20.921224,285.69608 c 6.873874,-32.42661 33.363985,-57.74634 67.390797,-64.41338 15.049819,-2.94881 30.396029,-2.26373 33.134299,1.47916 1.06629,1.45756 1.93872,3.15714 1.93872,3.77683 0,0.62006 -4.67314,1.12677 -10.38474,1.12677 -21.228632,0 -35.790505,5.56873 -49.018977,18.74563 -28.164676,28.05502 -26.666248,70.92392 3.534112,101.10898 18.61749,18.60814 39.094065,25.50664 61.472245,20.70981 3.92355,-0.84099 7.47933,-1.18367 7.90176,-0.76155 1.70479,1.70393 -1.11153,7.48436 -4.36932,8.96798 -11.23575,5.11674 -31.63591,7.69905 -45.057894,5.7034 z m 21.292124,-27.69218 c -1.16383,-3.66512 -0.1293,-5.08566 4.51261,-6.19664 5.87218,-1.40555 17.78173,-10.06919 21.76306,-15.83168 11.31688,-16.37977 11.30575,-32.14933 -0.0332,-47.28953 -5.4735,-7.30831 -0.4726,-5.53375 7.85151,2.78615 10.83395,10.82837 13.23861,16.19634 13.26077,29.60277 0.0154,9.49892 -0.56097,12.27595 -3.90538,18.80648 -7.7891,15.20956 -17.00121,20.89609 -33.8511,20.89609 -7.48018,0 -8.84231,-0.39337 -9.5981,-2.77364 z M 84.946668,318.35968 c -15.203352,-6.9016 -18.404848,-24.80089 -6.743465,-37.70216 5.36882,-5.93961 12.798122,-9.84393 28.449717,-14.95117 11.67779,-3.81063 17.70695,-7.17152 25.54412,-14.23956 8.9194,-8.04405 14.83252,-22.86889 14.86561,-37.26985 0.0252,-10.91557 0.57359,-11.60675 9.21028,-11.60675 4.1259,0 10.61658,-1.18299 14.4237,-2.62881 l 6.92203,-2.62881 0.93882,6.25737 c 2.15777,14.38177 -4.4889,36.82796 -14.0541,47.46132 -9.17237,10.19677 -17.07269,13.62691 -60.29983,26.18105 -8.593703,2.49579 -12.875342,6.50444 -12.875342,12.05446 0,9.81815 12.516322,14.1785 20.771152,7.23603 5.04136,-4.23992 7.1259,-3.46483 7.04589,2.61991 -0.11483,8.74599 -6.78946,16.92145 -16.52639,20.24259 -6.571403,2.24158 -11.047243,1.98172 -17.672192,-1.02562 z"
       style="fill:#ffffff;fill-opacity:1;stroke-width:2.64583335;stroke:#ffffff;stroke-opacity:1;stroke-dasharray:none"
       sodipodi:nodetypes="cccsscsczcssscssssccssccssscsscccssscscccccscccc" />
    <text
       xml:space="preserve"
       style="font-style:normal;font-variant:normal;font-weight:bold;font-stretch:normal;font-size:3.175px;line-height:1.25;font-family:'Liberation Sans';-inkscape-font-specification:'Liberation Sans Bold';text-align:end;letter-spacing:0px;word-spacing:0px;writing-mode:lr-tb;text-anchor:end;fill:#000000;fill-opacity:1;stroke:none;stroke-width:0.264583"
       x="317.00336"
       y="276.80115"
       id="text881" />
  </g>
</svg>
