<?xml version="1.0" encoding="UTF-8" standalone="no"?>
<svg
   xmlns:dc="http://purl.org/dc/elements/1.1/"
   xmlns:cc="http://creativecommons.org/ns#"
   xmlns:rdf="http://www.w3.org/1999/02/22-rdf-syntax-ns#"
   xmlns:svg="http://www.w3.org/2000/svg"
   xmlns="http://www.w3.org/2000/svg"
   xmlns:sodipodi="http://sodipodi.sourceforge.net/DTD/sodipodi-0.dtd"
   xmlns:inkscape="http://www.inkscape.org/namespaces/inkscape"
   width="3303.5159"
   height="1001.5748"
   viewBox="0 0 874.05522 265.00001"
   version="1.1"
   id="svg8"
   inkscape:version="1.0.1 (3bc2e813f5, 2020-09-07, custom)"
   sodipodi:docname="LogoWaldorfschule_noCity.svg">
  <defs
     id="defs2" />
  <sodipodi:namedview
     id="base"
     pagecolor="#ffffff"
     bordercolor="#666666"
     borderopacity="1.0"
     inkscape:pageopacity="0.0"
     inkscape:pageshadow="2"
     inkscape:zoom="0.35355339"
     inkscape:cx="1550.7939"
     inkscape:cy="539.83316"
     inkscape:document-units="px"
     inkscape:current-layer="layer1"
     showgrid="false"
     units="px"
     inkscape:window-width="1920"
     inkscape:window-height="1042"
     inkscape:window-x="0"
     inkscape:window-y="20"
     inkscape:window-maximized="1"
     inkscape:snap-bbox="true"
     inkscape:bbox-nodes="true"
     inkscape:snap-bbox-edge-midpoints="true"
     inkscape:snap-bbox-midpoints="true"
     inkscape:bbox-paths="true"
     inkscape:object-paths="true"
     inkscape:snap-intersection-paths="true"
     inkscape:snap-center="true"
     inkscape:snap-others="true"
     inkscape:snap-object-midpoints="true"
     inkscape:snap-smooth-nodes="true"
     inkscape:snap-midpoints="true"
     fit-margin-top="0"
     fit-margin-left="0"
     fit-margin-right="0"
     fit-margin-bottom="0"
     showguides="true"
     inkscape:document-rotation="0">
    <inkscape:grid
       type="xygrid"
       id="grid2079"
       originx="-63.499955"
       originy="333.37506"
       spacingx="0.5"
       spacingy="0.5"
       units="mm" />
  </sodipodi:namedview>
  <metadata
     id="metadata5">
    <rdf:RDF>
      <cc:Work
         rdf:about="">
        <dc:format>image/svg+xml</dc:format>
        <dc:type
           rdf:resource="http://purl.org/dc/dcmitype/StillImage" />
        <dc:title></dc:title>
      </cc:Work>
    </rdf:RDF>
  </metadata>
  <g
     inkscape:label="Layer 1"
     inkscape:groupmode="layer"
     id="layer1"
     transform="translate(-33.00333,-197.67619)">
    <path
       inkscape:connector-curvature="0"
       id="path2401"
       d="m 194.21129,449.42366 c 12.88782,-6.74425 29.60823,-22.90266 36.39413,-35.1709 9.683,-17.50577 13.73341,-39.51067 10.52638,-57.18733 -2.74318,-15.12025 -8.68519,-26.55721 -20.52423,-39.50449 -7.84043,-8.57435 -8.9122,-10.49606 -5.85379,-10.49606 4.33141,0 19.07911,11.18699 27.69829,21.01085 13.75801,15.68084 21.07057,35.22712 21.07057,56.321 0,22.72727 -13.02795,59.82968 -25.12231,71.54613 -5.63496,5.45885 -10.73721,6.73333 -23.9348,6.73333 -13.19759,0 -41.03986,-2.85926 -20.25424,-13.25253 z m -69.92544,-4.8417 C 63.221714,435.50269 22.506143,376.49007 35.385889,315.73146 c 9.183621,-43.32251 44.574878,-77.15014 90.035301,-86.05747 20.10684,-3.93962 40.60965,-3.02433 44.26798,1.97624 1.42461,1.94727 2.59019,4.21792 2.59019,5.04591 0,0.82798 -6.2434,1.50545 -13.87417,1.50545 -28.36185,0 -47.81677,7.43986 -65.490244,25.04448 -37.628505,37.48188 -35.62658,94.7555 4.721637,135.08333 24.873297,24.86079 52.230367,34.07727 82.128017,27.66858 5.24191,-1.12363 9.9925,-1.58138 10.5569,-1.01726 2.27761,2.27648 -1.48504,9.99931 -5.83752,11.98144 -15.01115,6.8361 -42.26614,10.28599 -60.19813,7.6198 z m 28.44666,-36.99725 c -1.55492,-4.89661 -0.17276,-6.79447 6.02894,-8.27886 7.84532,-1.87777 23.75667,-13.45256 29.0758,-21.15133 15.11955,-21.88361 15.1047,-42.95214 -0.0445,-63.17969 -7.31269,-9.76404 -0.63142,-7.39316 10.48979,3.72235 14.47437,14.46697 17.68699,21.63865 17.71661,39.54988 0.0205,12.69071 -0.74948,16.40089 -5.21766,25.12578 -10.40637,20.32016 -22.71392,27.91754 -45.22565,27.91754 -9.99367,0 -11.81351,-0.52589 -12.82324,-3.70567 z m -31.80749,-48.21413 c -20.31195,-9.22056 -24.589204,-33.13441 -9.00939,-50.37071 7.17284,-7.93548 17.09852,-13.15173 38.00932,-19.97512 15.60173,-5.091 23.65678,-9.58124 34.12741,-19.02427 11.91647,-10.74692 19.81651,-30.55325 19.86072,-49.79309 0.0335,-14.5834 0.76632,-15.50687 12.30506,-15.50687 5.51231,0 14.18396,-1.58048 19.27035,-3.51216 l 9.24794,-3.51217 1.25429,8.36003 c 2.88283,19.21429 -5.99724,49.20274 -18.77653,63.40918 -12.25441,13.62299 -22.8094,18.20574 -80.56165,34.97824 -11.48132,3.33445 -17.20167,8.6901 -17.20167,16.10498 0,13.11733 16.72201,18.94277 27.75062,9.6675 6.73536,-5.66458 9.52032,-4.62906 9.41346,3.50026 -0.15345,11.68478 -9.07087,22.60732 -22.07958,27.04453 -8.77948,2.99467 -14.7593,2.6476 -23.61035,-1.37033 z"
       style="fill:#ffffff;fill-opacity:1;stroke-width:1.86164"
       sodipodi:nodetypes="cccsscsczcssscssssccssccssscsscccssscscccccscccc" />
    <text
       xml:space="preserve"
       style="font-style:normal;font-variant:normal;font-weight:bold;font-stretch:normal;font-size:3.175px;line-height:1.25;font-family:'Liberation Sans';-inkscape-font-specification:'Liberation Sans Bold';text-align:end;letter-spacing:0px;word-spacing:0px;writing-mode:lr-tb;text-anchor:end;fill:#ffffff;fill-opacity:1;stroke:none;stroke-width:0.264583;"
       x="317.00336"
       y="276.80115"
       id="text881" />
    <text
       xml:space="preserve"
       style="font-weight:bold;font-size:74.1911px;line-height:1.125;font-family:'Titillium Web';-inkscape-font-specification:'Titillium Web Bold';letter-spacing:0.542135px;fill:#ffffff;fill-opacity:1;stroke-width:7.2259;stroke-linecap:round;stroke-linejoin:round;paint-order:stroke fill markers;stop-color:#000000;"
       x="319.63791"
       y="271.85715"
       id="text853"><tspan
         sodipodi:role="line"
         id="tspan851"
         x="319.63791"
         y="271.85715"
         style="fill:#ffffff;fill-opacity:1;stroke-width:7.2259;">FREIE</tspan><tspan
         sodipodi:role="line"
         x="319.63791"
         y="355.32214"
         style="fill:#ffffff;fill-opacity:1;stroke-width:7.2259;"
         id="tspan855">WALDORFSCHULE</tspan></text>
  </g>
</svg>
